<?xml version="1.0" encoding="utf-8"?>
<!DOCTYPE svg PUBLIC "-//W3C//DTD SVG 1.0//EN" "http://www.w3.org/TR/2001/REC-SVG-20010904/DTD/svg10.dtd">
<svg version="1.0" xmlns="http://www.w3.org/2000/svg" width="1173px" height="236px" viewBox="0 0 1173 236" preserveAspectRatio="xMidYMid meet">
 <g fill="#ffffff">
  <path d="M62.8 222.6 c-3.5 -3.6 -5.8 -9.1 -5.8 -13.8 0 -4.7 2.1 -8.7 6.6 -12.3 5.5 -4.6 8.1 -9.5 10 -19.2 2.3 -12 5.9 -17.8 10.6 -17.1 2.1 0.3 2.3 0.8 2.3 6.3 -0.1 3.3 -1.1 10.7 -2.4 16.5 -1.2 5.8 -2.6 15.9 -3 22.5 -1 15.6 -2.9 19.1 -10.9 20.2 -3.5 0.5 -4.3 0.1 -7.4 -3.1z"/>
  <path d="M181 203.3 c-3.5 -2.4 -4.9 -4.6 -9.5 -14.8 -4.8 -10.6 -9.9 -20 -14.9 -27.4 -4.2 -6.1 -5.3 -9.7 -3.9 -12 3.1 -4.9 10.3 0.4 18.8 13.5 5.3 8.2 8.6 10.9 15.9 13.5 10.3 3.6 13.4 17.1 6 25.9 -2 2.3 -3.4 3 -6.3 3 -2 0 -4.8 -0.8 -6.1 -1.7z"/>
  <path d="M649 199.1 c-7.7 -2.5 -13.6 -7.8 -16.9 -15.1 -1.6 -3.5 -2.1 -6.6 -2.1 -14 0 -5.2 0.4 -11.2 0.9 -13.2 0.6 -2.7 0.5 -4 -0.4 -4.8 -4.7 -3.9 -8.5 -22.4 -8.5 -41.1 0 -7.1 -0.4 -12.9 -0.9 -12.9 -2 0 -13 13.3 -17.4 21.2 -2.6 4.6 -6.7 14.4 -9.3 22.3 -4.7 14.2 -7.9 19.5 -11.6 19.5 -0.9 0 -2.2 -0.9 -2.8 -2 -2.4 -4.5 -3.9 -52 -2.1 -68.5 l0.6 -6 4 0 4 0 -0.5 4 c-1.1 8.6 -0.5 52.4 0.7 53.6 0.9 0.9 2.5 -1.5 6.8 -10.2 10.6 -21 23 -39.2 29 -42.5 3.2 -1.7 3.6 -1.7 5.1 -0.2 2 1.9 2 3.1 1 20.8 -0.7 11.3 -0.5 14.6 0.9 19.9 1.7 6.7 5.3 14.7 6.1 13.8 0.3 -0.3 2.7 -3.8 5.3 -7.8 4 -6.1 4.7 -7.8 4 -9.7 -1.5 -4 -1 -6.7 2.6 -13.9 4 -8.1 12.5 -17.8 19.3 -22.1 5.5 -3.6 14.7 -6.1 16.3 -4.5 1.4 1.4 1.5 16.4 0.2 18.8 -1.5 2.7 -2.2 0.9 -2.5 -6.9 -0.2 -4.3 -0.8 -6.2 -2.1 -7 -5.7 -3.6 -26.7 18.3 -25.5 26.6 0.2 1.5 1.5 2.7 4.3 3.7 2.2 0.9 5.1 2.8 6.3 4.3 1.3 1.6 3 2.8 3.8 2.8 0.7 0 3.9 -1.7 7.1 -3.7 17 -10.8 29.6 -0.1 29.6 25.2 -0.1 13.3 -3.1 21.8 -11.8 32.9 -3.9 5 -13.5 11.9 -20.5 14.6 -5.9 2.4 -18.7 3.5 -23 2.1z m21.2 -7.1 c6 -1.7 15.1 -8.5 19.5 -14.5 11.8 -15.9 13.4 -41.4 3.1 -50 -6 -5.1 -14.9 -2.9 -26.5 6.5 -3.4 2.7 -6.5 5 -6.8 5 -0.4 0 0.2 -1.6 1.4 -3.6 1.2 -1.9 2.1 -3.9 2.1 -4.5 0 -0.5 -2 -0.9 -4.4 -0.9 -4.1 0 -4.8 0.4 -9.5 5.6 -9.4 10.2 -13.1 19.5 -13.1 32.7 0 18.4 7.6 26.4 24 25.2 3.6 -0.2 8.2 -0.9 10.2 -1.5z"/>
  <path d="M401.1 159.7 c-0.6 -0.8 -1.5 -5.6 -2.1 -10.8 -1 -10.2 -1.4 -60.7 -0.4 -63.3 0.4 -1.1 1.9 -1.6 4.3 -1.6 l3.7 0 -0.4 22.9 c-0.4 22 0.2 36.1 1.6 36.1 0.4 0 3.3 -5.1 6.4 -11.3 12.2 -23.9 26.5 -43.7 31.6 -43.7 4 0 4.4 1.9 3.7 19.7 -0.8 19.2 0.1 24.5 6.1 36.4 1.9 3.8 3.4 7.3 3.4 7.8 0 1.7 -4.4 2 -6.8 0.5 -5.3 -3.5 -8.7 -17.9 -9.8 -41 l-0.7 -14.8 -4.5 5 c-5.9 6.4 -13.8 18.3 -16.7 24.8 -1.2 2.8 -4.1 10.8 -6.4 17.8 -3.1 9.4 -4.9 13.3 -6.8 14.8 -3 2.3 -4.6 2.5 -6.2 0.7z"/>
  <path d="M475 159.5 c-0.7 -0.8 -1.6 -4.7 -2.1 -8.7 -0.9 -8.4 -1.2 -62.8 -0.3 -65.2 0.4 -1.1 1.9 -1.6 4.3 -1.6 l3.6 0 -0.3 24 c-0.4 23.1 0.2 35 1.6 35 0.4 0 2.9 -4.4 5.6 -9.7 11.6 -23.7 27.1 -45.3 32.4 -45.3 3.8 0 4.3 2.8 3.6 20.7 -0.8 18.6 0 23.2 5.6 34.2 4.2 8.6 4.4 9.8 1.8 10.4 -8 2.1 -13.2 -12.6 -14.5 -40.5 -0.3 -8.2 -0.9 -14.8 -1.4 -14.8 -1.1 0 -8.6 8.7 -12.9 15 -5.7 8.4 -8.7 15 -13.5 29.2 -5.4 16 -9.8 21.7 -13.5 17.3z"/>
  <path d="M917.8 158.8 c-1 -1.8 -1.3 -10.8 -1.3 -38.3 l0 -36 4 0 c3.9 0 4 0.1 3.6 3 -0.2 1.7 -0.4 14 -0.5 27.5 -0.1 31.3 0.3 32.2 7.4 18 11.7 -23.4 27.3 -45 32.4 -45 0.9 0 2.2 1.1 3.1 2.4 1.3 2 1.4 4.1 0.4 16.8 -1.1 13.1 -1.1 15.3 0.6 21.9 0.9 4.1 3.3 10.4 5.1 14.1 1.9 3.7 3.4 7.4 3.4 8.2 0 2 -4.1 2.7 -6.6 1.1 -5.2 -3.4 -9.4 -22.6 -9.4 -42.8 l0 -13.1 -4.5 4.4 c-5.9 5.8 -13.9 17.4 -17.4 25.3 -1.6 3.4 -4.5 11.4 -6.6 17.7 -5 15.2 -10.2 20.9 -13.7 14.8z"/>
  <path d="M1113.3 158.3 c-1.6 -2.5 -1.8 -5.9 -1.8 -38.3 l0 -35.5 4 -0.3 4 -0.3 -0.3 27.3 c-0.2 15 0.1 28.4 0.6 29.7 0.8 2.2 1.4 1.4 6.8 -9 13.1 -25 27 -43.9 32.4 -43.9 3.8 0 4.4 3.7 3.1 18.2 -1.4 17.1 -0.3 24.5 5.3 35.6 4.6 9.1 4.8 10 2.5 11.2 -3.2 1.7 -5.8 0.2 -8.3 -4.9 -3.7 -7.3 -5.6 -18.1 -6.3 -35.4 l-0.6 -15.8 -3.9 3.8 c-2.2 2.1 -6.9 8.2 -10.6 13.7 -5.5 8.2 -7.4 12.4 -11.9 25.5 -6.9 19.9 -10.9 24.8 -15 18.4z"/>
  <path d="M252.2 158.3 c-0.4 -1 -0.7 -23.4 -0.7 -49.8 l0 -48 3.2 -0.3 c2.7 -0.3 3.3 0.1 3.7 2 0.3 1.3 1.7 7.3 3 13.3 5.9 26.5 16.8 42.2 30.8 44.1 14.3 2 23.8 -13.3 26.9 -43.5 l1.3 -12.1 3.4 0 3.4 0 -0.7 15.3 c-0.9 21.1 1.6 43 7.1 61.3 2.6 8.6 2.4 10.9 -0.8 12 -4.4 1.4 -6.8 -5.1 -10.7 -28.9 -1.5 -9.2 -3 -17 -3.3 -17.3 -0.3 -0.3 -1.5 1.1 -2.7 3 -2.9 4.6 -11 11.8 -15.8 14.1 -13.1 6.3 -25.4 0 -36.5 -18.7 -2.2 -3.8 -4.4 -6.8 -4.8 -6.8 -2.7 0 -2.7 20 0 35.1 2.2 12.9 2.6 23.9 0.8 25.7 -1.8 1.8 -6.7 1.5 -7.6 -0.5z"/>
  <path d="M783.9 156.6 c-2.6 -5.5 2 -13.6 8.5 -15.2 2.6 -0.6 2.8 -0.5 2.2 1.2 -2 4.7 -1.9 5.4 0.5 5.4 6.4 -0.1 19.2 -10 23.4 -17.9 1.9 -3.8 3.1 -12.7 2.1 -16.4 -0.9 -3.7 -5.3 -8.5 -9.7 -10.7 -5.1 -2.7 -11.5 -2.5 -22.4 0.5 -11.9 3.3 -17.4 3.3 -20.5 0 -2 -2.1 -2.2 -3.1 -1.7 -7.7 1 -8.1 6.6 -18.5 14.9 -27.3 8 -8.6 10.5 -10.1 17.4 -11 5.3 -0.6 14.5 1.3 15.1 3.2 0.4 1.1 -11.3 14.3 -12.7 14.3 -0.4 0 -0.3 -2.1 0.2 -4.6 0.6 -2.5 0.8 -4.8 0.5 -5 -1.3 -1.4 -8.4 1.2 -11.8 4.3 -5.4 4.9 -14.8 19.1 -15.5 23.5 -0.6 3.4 -0.4 3.8 2 4.4 2.7 0.6 4.6 0.5 16.6 -1.6 7.6 -1.3 16.1 -0.5 21 2 10.7 5.5 14.8 19.3 9.8 32.7 -3.2 8.6 -13.6 18.7 -24.9 24.2 -10 4.8 -13.4 5.2 -15 1.7z"/>
  <path d="M1058.3 157 c-7 -2.2 -10.5 -10 -10.4 -23.4 0.1 -13.5 3.6 -23.4 12.6 -35.3 5.3 -7.2 8.3 -9.6 14 -11.3 11.5 -3.4 20.5 10.6 20.5 31.8 -0.1 24.7 -9 37.6 -26.7 38.7 -3.8 0.3 -8.2 0 -10 -0.5z m18.5 -7.4 c7 -3.7 11.3 -11.5 13.2 -24.1 2.1 -13.9 -0.6 -27.2 -6.3 -30.9 -2.3 -1.6 -2.8 -1.5 -7.8 0.4 -7.8 2.9 -11.4 5.4 -14.8 10 -5.2 7.2 -6.6 13 -6.6 27.3 l0 12.9 3.3 2.9 c2.9 2.6 4 2.9 9.8 2.9 3.6 0 7.7 -0.6 9.2 -1.4z"/>
  <path d="M852.2 154.2 c-0.9 -0.6 -1.5 -7.1 -2.2 -23.8 -1 -25.3 -1.5 -29.4 -3.7 -29.4 -0.8 0 -3.6 1.8 -6.1 4.1 -6.2 5.5 -12.2 7.7 -12.2 4.6 0 -1.7 7.3 -8.6 12.7 -12 7.4 -4.7 7.5 -5.2 6.9 -25.4 -0.3 -9.8 -0.6 -19.1 -0.7 -20.7 -0.2 -3.6 2.5 -5.8 6.6 -5.4 l3 0.3 -0.4 21.1 -0.4 21.2 3.9 -0.8 c2.2 -0.4 7.1 -1.6 11.1 -2.6 5.8 -1.4 7.7 -1.5 9.8 -0.6 4.2 1.9 2.9 2.9 -4.7 3.5 -8.6 0.7 -15.9 3 -18.4 5.9 -1.6 1.7 -1.9 3.4 -1.6 11.2 0.1 5 0.7 13.5 1.2 19 0.6 5.4 1 14 1 19.2 0 8.2 -0.2 9.5 -1.9 10.4 -2.3 1.2 -2.3 1.2 -3.9 0.2z"/>
  <path d="M345.4 150.5 c-1.3 -2 -1.6 -4.1 -1.2 -9.8 0.6 -8.1 2.8 -14 15.9 -42.3 4.3 -9.4 7.9 -17.8 7.9 -18.7 0 -8 -17.7 11.5 -27.3 30 -5.5 10.8 -6.8 7 -1.4 -4.2 4.2 -8.6 12.8 -19.5 23.5 -29.7 8.4 -8 10.1 -8.9 12.2 -6.3 2.1 2.5 0.1 9.4 -6.7 22.4 -14.1 27.2 -19.1 40.5 -17.9 48.4 1 6.6 3.7 7 9.1 1.3 6.2 -6.4 7.8 -14.3 9.5 -45.4 0 -0.1 1.2 -0.7 2.6 -1.2 4.9 -1.9 5.5 -0.2 4.8 12.9 -0.8 14 0.5 20 7.2 33.8 2.5 5.1 4.3 9.7 3.9 10.3 -2 3.2 -7.4 -2.2 -12.5 -12.7 -3.1 -6.2 -3.3 -6.4 -5.1 -4.7 -1 0.9 -3.2 4.5 -4.8 7.9 -3.8 8.1 -6.9 10.5 -13.2 10.5 -4.1 0 -5.1 -0.4 -6.5 -2.5z"/>
  <path d="M544.1 151.1 c-1.1 -1.1 -2.4 -3.7 -3 -5.8 -2.3 -8.3 -0.6 -36.1 2.9 -48.6 1.5 -5.3 4.3 -7.9 7.2 -6.8 3.1 1.1 3.5 6.7 0.9 12.5 -2.9 6.8 -4.4 15.1 -4.4 25.1 0 7.4 0.4 10.2 2.7 15.9 1.5 3.8 2.3 7.2 1.9 7.6 -2.1 1.9 -6.3 2 -8.2 0.1z"/>
  <path d="M882.8 151.9 c-1 -0.5 -2.5 -3.5 -3.4 -6.7 -2.7 -9.3 -0.6 -39.7 3.4 -50.3 2.2 -5.7 7 -7.1 9.3 -2.7 1.1 2.1 0.8 3.5 -2.6 12.3 -2.8 7.3 -4.6 22.1 -3.5 29 0.5 2.8 1.8 7.6 3 10.8 1.2 3.3 1.8 6.2 1.4 6.7 -1.6 1.4 -5.9 1.9 -7.6 0.9z"/>
  <path d="M996.1 150.6 c-3.1 -3.3 -2.2 -6.1 1.7 -5 10 2.9 24.8 -5.2 30.6 -16.9 3.5 -7 3.6 -15.4 0.2 -19.4 -2.1 -2.5 -3.2 -2.8 -9.7 -3.1 -6.7 -0.4 -8.4 0 -18.2 3.7 -5.9 2.3 -12.3 4.1 -14.2 4.1 -3.3 0 -3.5 -0.2 -3.5 -3.5 0 -2.9 0.9 -4.6 4.8 -8.7 7.2 -7.7 22.3 -17.8 26.7 -17.8 3.3 0 1.3 3.6 -3.7 6.7 -6.1 3.6 -14.8 11.4 -14.8 13.1 0 1.7 3.3 1.5 12.8 -0.8 10.4 -2.5 16.7 -2.5 21.2 -0.1 7.4 3.9 9.6 14.1 5 23.6 -3.5 7.4 -15.3 18.8 -23.3 22.5 -9.4 4.4 -12.6 4.8 -15.6 1.6z"/>
  <path d="M36.5 141.5 c-7.2 -3.4 -9.5 -7.1 -9.5 -15.7 0 -6.5 0.1 -6.8 3 -8.3 5.9 -3.1 9.4 -1.8 23.8 8.9 10 7.4 11.7 10 8.3 12.7 -4.5 3.7 -19.9 5.1 -25.6 2.4z"/>
  <path d="M157.5 120.8 c-0.9 -2.2 0.9 -5.9 7.9 -16.5 7.5 -11.2 10.3 -13.6 15.9 -13.7 3.5 -0.1 4.3 0.3 6 3.2 6 10.2 2.3 21.3 -8.6 25.7 -5.9 2.4 -20.5 3.3 -21.2 1.3z"/>
  <path d="M558.4 65.5 c-1.1 -2.8 0.4 -4.5 3.9 -4.5 3.8 0 6.3 2.1 5.3 4.5 -0.8 2.1 -8.4 2.1 -9.2 0z"/>
  <path d="M896.5 66 c-0.3 -0.6 -0.3 -1.9 0 -3 0.5 -1.5 1.5 -2 3.9 -2 3.7 0 6.1 2.1 5.2 4.5 -0.6 1.7 -8.1 2.1 -9.1 0.5z"/>
  <path d="M53.4 42.9 c-5.5 -2.1 -14.9 -10.9 -14.1 -13.2 0.6 -2.1 5.6 -1.9 10.2 0.3 4.6 2.2 12.5 10 12.5 12.4 0 1.1 -2.3 2.9 -3.3 2.5 -0.1 0 -2.5 -0.9 -5.3 -2z"/>
  <path d="M135.6 29.1 c-1.3 -2.1 2.2 -9.7 6.9 -14.9 6.3 -7 11.5 -7.3 9.6 -0.5 -1.3 4.5 -2.9 7.1 -7.3 11.9 -3.8 4.2 -7.9 5.7 -9.2 3.5z"/>
 </g>
 <g fill="#6fbb45">
  <path d="M121.7 203.1 c-5.9 -6.6 -10.4 -26.1 -13.7 -59.1 -1.2 -12.6 -2.7 -22.6 -3.5 -24.1 -2.7 -4.8 -2.9 -10.2 -0.7 -15.2 3.2 -7.3 9.8 -7.7 14.9 -1 2.5 3.2 2.8 4.5 2.9 11.7 0.1 5 0.9 10.8 2.2 15.1 7.3 24.3 12.9 54.7 12 64.6 -0.3 2.6 -1.5 6.3 -2.7 8.3 -3.1 5 -6.7 4.9 -11.4 -0.3z"/>
 </g>
 <g fill="#c31e5f">
  <path d="M80.4 120.5 c-12.8 -9.1 -28.5 -19.3 -34.3 -22.2 -6.1 -3.1 -7.1 -3.3 -17.1 -3.3 -10.2 0 -10.8 -0.1 -13.1 -2.6 -2.1 -2.2 -2.4 -3.5 -2.4 -10.2 0 -9.9 1.7 -13.6 6.4 -14 12.8 -1.2 43.3 16.7 62.3 36.6 10.3 10.9 12.7 15.1 10.2 17.7 -2.5 2.5 -6.8 1.8 -12 -2z"/>
 </g>
 <g fill="#20b5dd">
  <path d="M134.3 114.3 c-1.8 -0.7 -1.6 -6.2 0.3 -9.8 0.9 -1.6 3.8 -7.9 6.5 -13.8 8 -17.8 30 -45.1 40.6 -50.6 3.7 -1.8 4.1 -1.8 7.2 -0.4 4.5 2.2 9.1 10.4 9.1 16.4 0 5.9 -2.1 7.9 -12 11.5 -13.4 4.8 -18.5 9.8 -33.4 32.4 -9.1 13.8 -10.3 15 -14 14.9 -1.7 0 -3.7 -0.3 -4.3 -0.6z"/>
 </g>
 <g fill="#ea7423">
  <path d="M209 169.2 c-1.9 -0.9 -7.4 -5.4 -12.1 -9.9 -10.3 -9.7 -17 -14.2 -27.6 -18.4 -8 -3.1 -11.3 -5.3 -11.3 -7.4 0 -4.6 19 -4.7 29.9 -0.1 12.4 5.3 27.1 16.4 29.7 22.5 2.1 5 2 10.7 -0.1 13.1 -2.2 2.4 -4 2.5 -8.5 0.2z"/>
 </g>
 <g fill="#dae361">
  <path d="M30.1 200.1 c-3 -3 -2.8 -11 0.3 -17.8 8.5 -18.3 25.3 -33.6 39 -35.6 4 -0.6 7.6 0.5 7.6 2.5 0 0.6 -4.9 5.9 -10.9 11.7 -10.5 10.2 -11.1 11.1 -17.1 23.3 -3.4 7 -7.2 13.6 -8.4 14.7 -3.4 3.2 -8 3.7 -10.5 1.2z"/>
 </g>
</svg>