<svg width="59" height="20" viewBox="0 0 59 20" fill="none" xmlns="http://www.w3.org/2000/svg">
<path d="M2.8 19V3.4H0.25V0.625H8.05V3.4H5.5V19H2.8ZM9.30078 19V0.625H12.0008C13.6174 0.625 14.8091 1.075 15.5758 1.975C16.3424 2.86667 16.7258 4.18333 16.7258 5.925C16.7258 6.95833 16.5424 7.85417 16.1758 8.6125C15.8174 9.3625 15.3799 9.9125 14.8633 10.2625L16.7008 19H14.0008L12.4758 11.25H12.0008V19H9.30078ZM12.0008 8.75C12.5008 8.75 12.8966 8.64167 13.1883 8.425C13.4799 8.2 13.6883 7.88333 13.8133 7.475C13.9383 7.06667 14.0008 6.58333 14.0008 6.025C14.0008 5.15 13.8549 4.47917 13.5633 4.0125C13.2799 3.5375 12.7591 3.3 12.0008 3.3V8.75ZM17.6738 19L20.4488 0.625H23.7488L26.5238 19H23.8988L23.3988 15.25H20.7988L20.2988 19H17.6738ZM21.1738 12.4H23.0238L22.2488 6.225L22.1738 5.25H22.0238L21.9488 6.225L21.1738 12.4ZM27.9531 19V0.625H30.6531V19H27.9531ZM32.665 19V0.625H35.19L37.69 10.2L37.915 11.05H38.065V0.625H40.54V19H38.265L35.515 9.425L35.29 8.575H35.14V19H32.665Z" fill="white"/>
<path d="M45.8033 19.2C45.0867 19.2 44.495 19.0708 44.0283 18.8125C43.57 18.5542 43.2117 18.1833 42.9533 17.7C42.7033 17.2083 42.5283 16.6208 42.4283 15.9375C42.3283 15.2542 42.2783 14.4917 42.2783 13.65H44.9783V14.375C44.9783 15.0583 45.02 15.6417 45.1033 16.125C45.1867 16.6083 45.42 16.85 45.8033 16.85C46.0533 16.85 46.2367 16.7333 46.3533 16.5C46.47 16.2583 46.545 15.95 46.5783 15.575C46.6117 15.2 46.6283 14.8083 46.6283 14.4V10.3C46.6283 9.90833 46.5783 9.5875 46.4783 9.3375C46.3867 9.07917 46.195 8.95 45.9033 8.95C45.62 8.95 45.395 9.08333 45.2283 9.35C45.0617 9.61667 44.9575 9.93333 44.9158 10.3H42.4533V0.625H48.9783V3.3H44.7783V7.25C44.9367 7.05833 45.1408 6.8875 45.3908 6.7375C45.6492 6.57917 45.9992 6.5 46.4408 6.5C47.0658 6.5 47.5908 6.65417 48.0158 6.9625C48.4492 7.2625 48.7742 7.69583 48.9908 8.2625C49.2158 8.82917 49.3283 9.50833 49.3283 10.3V14.4C49.3283 15.05 49.2742 15.6667 49.1658 16.25C49.0658 16.825 48.8867 17.3333 48.6283 17.775C48.37 18.2167 48.0117 18.5667 47.5533 18.825C47.095 19.075 46.5117 19.2 45.8033 19.2ZM51.0732 19V0.625H53.8232C54.6899 0.625 55.4232 0.766666 56.0232 1.05C56.6232 1.33333 57.1066 1.81667 57.4732 2.5C57.8399 3.18333 58.1024 4.12083 58.2607 5.3125C58.4274 6.50417 58.5107 8.00833 58.5107 9.825C58.5107 11.65 58.4274 13.1583 58.2607 14.35C58.1024 15.5333 57.8399 16.4667 57.4732 17.15C57.1066 17.825 56.6232 18.3042 56.0232 18.5875C55.4232 18.8625 54.6899 19 53.8232 19H51.0732ZM53.7732 16.3C54.4399 16.3 54.9107 16.0375 55.1857 15.5125C55.4607 14.9875 55.6274 14.2375 55.6857 13.2625C55.7441 12.2875 55.7732 11.1292 55.7732 9.7875C55.7732 8.42917 55.7441 7.27083 55.6857 6.3125C55.6274 5.34583 55.4566 4.60833 55.1732 4.1C54.8982 3.58333 54.4316 3.325 53.7732 3.325V16.3Z" fill="#28B8E0"/>
</svg>
