<?xml version="1.0" encoding="UTF-8"?><svg id="Layer_1" xmlns="http://www.w3.org/2000/svg" viewBox="0 0 300 300"><defs><style>.cls-1{fill:#fff;}.cls-2{fill:#34aadc;}</style></defs><path class="cls-2" d="M153,11C77.34,11,16,72.34,16,148s61.34,137,137,137,137-61.34,137-137c.01-75.65-61.3-136.98-136.95-137h-.05"/><g><path class="cls-1" d="M120.58,153.74c0-7.5-2.66-13.06-8.23-13.06-2.9,0-5.32,2.18-7.26,4.84-1.94,2.9-2.9,6.29-2.9,8.23h-22.02V60.11h63.15v25.89h-40.65v37.02c2.9-2.18,6.05-4.11,9.68-5.32,1.69-.73,3.63-.97,5.32-.73,13.55,0,20.81,7.74,24.68,16.21,3.87,8.47,4.35,17.66,4.35,20.57v39.68c0,8.47-.48,19.84-5.08,29.28-4.6,9.68-13.31,17.18-29.03,17.18s-24.44-7.5-29.03-18.15c-4.6-10.4-5.08-23.71-5.08-35.57h26.13v7.02c0,8.95,.48,15.24,1.69,18.63,1.21,3.63,3.15,5.32,6.29,5.32,2.66,0,4.84-1.69,6.05-5.08,1.21-3.39,1.94-9.68,1.94-18.63v-39.68Z"/><path class="cls-1" d="M162.68,237.94V60.11h20.57c24.19,0,37.26,4.84,44.28,18.39,6.77,13.55,7.74,35.81,7.74,70.65s-.97,56.86-7.74,70.41c-7.02,13.55-20.08,18.39-44.28,18.39h-20.57Zm26.13-26.13c8.95,0,14.03-.97,16.69-9.68,1.21-4.11,2.18-10.4,2.42-18.87,.24-8.47,.24-19.84,.24-34.36s0-25.89-.24-34.36c-.24-8.23-1.21-14.52-2.42-18.87-2.66-8.47-7.74-9.44-16.69-9.44v125.57Z"/></g></svg>